<?xml version="1.0" encoding="UTF-8" standalone="no"?>
<svg
   inkscape:export-ydpi="98.046547"
   inkscape:export-xdpi="98.046547"
   inkscape:export-filename="/home/alu/projects/pb-gaps/src/dentist/docs/logo.png"
   sodipodi:docname="icon.svg"
   inkscape:version="1.1.2 (0a00cf5339, 2022-02-04, custom)"
   id="svg8"
   version="1.1"
   viewBox="0 0 450.02482 450.02485"
   height="32"
   width="32"
   xmlns:inkscape="http://www.inkscape.org/namespaces/inkscape"
   xmlns:sodipodi="http://sodipodi.sourceforge.net/DTD/sodipodi-0.dtd"
   xmlns:xlink="http://www.w3.org/1999/xlink"
   xmlns="http://www.w3.org/2000/svg"
   xmlns:svg="http://www.w3.org/2000/svg"
   xmlns:rdf="http://www.w3.org/1999/02/22-rdf-syntax-ns#"
   xmlns:cc="http://creativecommons.org/ns#"
   xmlns:dc="http://purl.org/dc/elements/1.1/">
  <title
     id="title953">DENTIST's Logo</title>
  <defs
     id="defs2" />
  <sodipodi:namedview
     id="base"
     pagecolor="#ffffff"
     bordercolor="#666666"
     borderopacity="1.0"
     inkscape:pageopacity="0.0"
     inkscape:pageshadow="2"
     inkscape:zoom="14.6875"
     inkscape:cx="16"
     inkscape:cy="16"
     inkscape:document-units="px"
     inkscape:current-layer="layer1"
     inkscape:document-rotation="0"
     showgrid="true"
     showborder="true"
     inkscape:window-width="1366"
     inkscape:window-height="694"
     inkscape:window-x="0"
     inkscape:window-y="32"
     inkscape:window-maximized="1"
     inkscape:showpageshadow="false"
     inkscape:pagecheckerboard="true"
     fit-margin-top="1.5"
     fit-margin-left="1.5"
     fit-margin-right="3"
     fit-margin-bottom="1.5"
     lock-margins="false"
     scale-x="53.15254"
     inkscape:snap-object-midpoints="true"
     inkscape:snap-nodes="true"
     inkscape:snap-global="false"
     units="px">
    <inkscape:grid
       type="xygrid"
       id="grid1323"
       units="px"
       spacingx="14.063276"
       spacingy="14.063276"
       originx="-509.52821"
       originy="-99.662539" />
  </sodipodi:namedview>
  <metadata
     id="metadata5">
    <rdf:RDF>
      <cc:Work
         rdf:about="">
        <dc:format>image/svg+xml</dc:format>
        <dc:type
           rdf:resource="http://purl.org/dc/dcmitype/StillImage" />
        <dc:title>DENTIST's Logo</dc:title>
        <dc:date>2021-02-18</dc:date>
        <dc:creator>
          <cc:Agent>
            <dc:title>Arne Ludwig &lt;ludwig@mpi-cbg.de&gt;</dc:title>
          </cc:Agent>
        </dc:creator>
        <dc:rights>
          <cc:Agent>
            <dc:title>© 2018 Arne Ludwig &lt;ludwig@mpi-cbg.de&gt; Subject to the terms of the MIT license.</dc:title>
          </cc:Agent>
        </dc:rights>
        <cc:license
           rdf:resource="https://github.com/a-ludi/dentist/blob/master/LICENSE" />
      </cc:Work>
    </rdf:RDF>
  </metadata>
  <g
     inkscape:groupmode="layer"
     id="layer2"
     inkscape:label="Path"
     style="display:none"
     transform="translate(-509.52826,-99.662541)">
    <path
       style="fill:#fefeff;stroke:#2a6e98;stroke-width:4.80001;stop-color:#000000"
       d="m 533.52829,149.74377 h 157.94046 c 104.67393,0 158.59305,103.51117 103.4897,178.39407 -49.15755,66.80283 -22.99881,212.99802 93.44793,212.99802 l 139.73012,-0.0447"
       id="path3351"
       sodipodi:nodetypes="ccscc" />
  </g>
  <g
     inkscape:label="Main"
     inkscape:groupmode="layer"
     id="layer1"
     transform="translate(-450.48846,203.67746)">
    <text
       xml:space="preserve"
       style="font-style:normal;font-variant:normal;font-weight:bold;font-stretch:normal;font-size:45.1556px;line-height:1.25;font-family:'Source Code Pro';-inkscape-font-specification:'Source Code Pro Bold';font-variant-ligatures:normal;font-variant-caps:normal;font-variant-numeric:normal;font-variant-east-asian:normal;text-decoration:none;text-decoration-line:none;text-decoration-color:#000000;letter-spacing:0px;word-spacing:0px;fill:#f1be10;fill-opacity:1;stroke:none;stroke-width:0.258255"
       id="text892"
       transform="translate(-120.26903,-295.30635)"><textPath
         xlink:href="#path3351"
         id="textPath3437">▀           ▀  ▀  ▀      ▀       G    GG   GG  G G  G            G       GG G    G    G   G              G   </textPath></text>
    <text
       xml:space="preserve"
       style="font-style:normal;font-variant:normal;font-weight:bold;font-stretch:normal;font-size:45.1556px;line-height:1.25;font-family:'Source Code Pro';-inkscape-font-specification:'Source Code Pro Bold';font-variant-ligatures:normal;font-variant-caps:normal;font-variant-numeric:normal;font-variant-east-asian:normal;text-decoration:none;text-decoration-line:none;text-decoration-color:#000000;letter-spacing:0px;word-spacing:0px;fill:#4365f5;fill-opacity:1;stroke:none;stroke-width:0.258255"
       id="text857"
       transform="translate(-120.26903,-295.30635)"><textPath
         xlink:href="#path3351"
         id="textPath3435">     ▀ ▀ ▀          ▀ ▀    ▀      C      C      C      C    C C                    CC      CCC      C       C</textPath></text>
    <text
       xml:space="preserve"
       style="font-style:normal;font-variant:normal;font-weight:bold;font-stretch:normal;font-size:45.1556px;line-height:1.25;font-family:'Source Code Pro';-inkscape-font-specification:'Source Code Pro Bold';font-variant-ligatures:normal;font-variant-position:super;font-variant-caps:normal;font-variant-numeric:normal;font-variant-east-asian:normal;text-decoration:none;text-decoration-line:none;text-decoration-color:#000000;letter-spacing:0px;word-spacing:0px;fill:#eb4a4a;fill-opacity:1;stroke:none;stroke-width:0.258255"
       id="text884"
       transform="translate(-117.03664,-295.30635)"><textPath
         xlink:href="#path3351"
         id="textPath3433">   ▀▀ ▀ ▀ ▀▀ ▀▀ ▀  ▀ ▀ ▀▀       T    T  T    T    TT TT T    T     TTT     T   T  T  T T      T T     T T T  </textPath></text>
    <text
       xml:space="preserve"
       style="font-style:normal;font-variant:normal;font-weight:bold;font-stretch:normal;font-size:45.1556px;line-height:1.25;font-family:'Source Code Pro';-inkscape-font-specification:'Source Code Pro Bold';font-variant-ligatures:normal;font-variant-caps:normal;font-variant-numeric:normal;font-variant-east-asian:normal;text-decoration:none;text-decoration-line:none;text-decoration-color:#000000;letter-spacing:0px;word-spacing:0px;fill:#37aa38;fill-opacity:1;stroke:none;stroke-width:0.258255"
       id="text888"
       transform="translate(-120.30118,-295.35967)"><textPath
         xlink:href="#path3351"
         id="textPath3439"> ▀▀              ▀        ▀ ▀▀▀A   AA     A   A          AAA   AA A   AAA    AA A       AA     A AAA A A   A </textPath></text>
    <path
       id="path2415"
       style="font-variation-settings:normal;vector-effect:none;fill:#ffffff;fill-opacity:1;stroke:#78879e;stroke-width:9.99998;stroke-linecap:round;stroke-linejoin:miter;stroke-miterlimit:4;stroke-dasharray:none;stroke-dashoffset:0;stroke-opacity:1;-inkscape-stroke:none;stop-color:#000000"
       d="m 584.05185,-144.36982 -10.13684,0.23153 -7.33391,17.23926 -0.44649,6.06888 1.75285,10.27741 -18.15702,5.31647 -4.06798,-9.59942 -3.6463,-4.86171 -15.47812,-10.5668 -8.66509,5.27513 2.27377,18.59525 2.64583,5.48183 6.6559,8.020193 -13.06381,13.683919 -8.32608,-6.283867 -5.58931,-2.38125 -18.68623,-1.413866 -4.86999,8.896613 11.2696,14.973767 5.02709,3.423044 9.78133,3.621486 -4.47311,18.380275 -10.35182,-1.281578 -6.03584,0.727609 -16.88372,8.119398 0.23156,10.145121 17.24754,7.325648 6.0606,0.454754 10.28569,-1.752863 5.31648,18.1487636 -9.60768,4.0679712 -4.86173,3.6545568 -10.56682,15.4698574 5.27515,8.665105 18.60352,-2.273766 5.47357,-2.637565 8.02843,-6.664191 13.67566,13.063802 -6.27558,8.326108 -2.38951,5.589325 -1.41389,18.686198 8.90491,4.869989 14.96546,-11.2696 3.42308,-5.027084 3.62149,-9.781312 18.38024,4.473109 -1.2733,10.351826 0.72763,6.035807 8.1194,16.883724 10.13685,-0.231521 7.33391,-17.239261 0.44649,-6.068881 -1.75285,-10.277409 18.15702,-5.316474 4.06798,9.599419 3.64625,4.861717 15.47813,10.566798 8.66512,-5.275131 -2.27376,-18.595249 -2.64584,-5.481837 -6.65594,-8.020182 13.06381,-13.683921 8.32612,6.283855 5.58932,2.38125 18.68619,1.413866 4.86998,-8.896613 -11.2696,-14.9737665 -5.02708,-3.423044 -9.78129,-3.6214858 4.47311,-18.3720087 10.35181,1.273311 6.03581,-0.727609 16.88372,-8.119398 -0.23157,-10.145121 -17.24749,-7.325648 -6.06061,-0.454754 -10.28569,1.752863 -5.31647,-18.148763 9.60768,-4.067971 4.86173,-3.654557 10.56678,-15.469858 -5.27512,-8.6651 -18.60351,2.273761 -5.47357,2.637565 -8.02848,6.664191 -13.67565,-13.063797 6.27562,-8.326123 2.3895,-5.58932 1.41385,-18.6862 -8.90486,-4.86999 -14.96551,11.2696 -3.42303,5.02709 -3.62149,9.78131 -18.38029,-4.47311 1.2733,-10.35183 -0.72758,-6.0358 z m -3.0179,88.709848 a 25.672178,25.672699 89.975782 0 1 22.52265,12.319662 25.672178,25.672699 89.975782 0 1 -8.58241,35.2722681 25.672178,25.672699 89.975782 0 1 -35.28056,-8.5824201 25.672178,25.672699 89.975782 0 1 8.58245,-35.272268 25.672178,25.672699 89.975782 0 1 12.75787,-3.737242 z" />
    <path
       id="path2860"
       style="font-variation-settings:normal;vector-effect:none;fill:#ffffff;fill-opacity:1;stroke:#78879e;stroke-width:9.99998;stroke-linecap:round;stroke-linejoin:miter;stroke-miterlimit:4;stroke-dasharray:none;stroke-dashoffset:0;stroke-opacity:1;-inkscape-stroke:none;stop-color:#000000"
       d="m 790.1645,29.241729 -8.83874,0.206713 -7.92095,17.669206 -0.0423,4.051432 2.88561,12.063346 -16.1892,7.143746 -6.9784,-10.252601 -3.0179,-2.703707 -18.3968,-6.044079 -6.10197,6.391344 6.88747,18.099153 2.84425,2.89388 10.56682,6.49056 -6.39961,16.503388 -12.17913,-2.323366 -4.05143,0.22322 -17.2806,8.731246 0.20659,8.83874 17.66922,7.92923 4.05142,0.0339 12.06335,-2.87735 7.14375,16.18919 -10.25262,6.97014 -2.70371,3.01791 -6.04405,18.39679 6.39131,6.11023 18.09916,-6.88742 2.8939,-2.8443 6.49055,-10.56678 16.5034,6.39132 -2.32338,12.17913 0.22309,4.05143 8.73125,17.28059 8.84704,-0.20658 7.92095,-17.66092 0.0339,-4.05973 -2.87731,-12.06335 16.1892,-7.14375 6.9701,10.25263 3.0179,2.7037 18.4051,6.04406 6.10192,-6.39132 -6.88742,-18.09915 -2.84425,-2.88561 -10.56682,-6.49884 6.39136,-16.49512 12.18734,2.3151 4.04317,-0.22309 17.2889,-8.73127 -0.20659,-8.83873 -17.66922,-7.929236 -4.05142,-0.033 -12.06335,2.88561 -7.15201,-16.189192 10.26084,-6.97839 2.70375,-3.0179 6.04405,-18.396813 -6.39961,-6.101952 -18.0909,6.887435 -2.89386,2.844271 -6.49055,10.558529 -16.5034,-6.391341 2.32338,-12.179102 -0.22309,-4.051431 z m -3.12539,56.017253 a 25.672179,25.6727 89.969943 0 1 18.32238,7.09414 25.672179,25.6727 89.969943 0 1 0.84336,36.297518 25.672179,25.6727 89.969943 0 1 -36.29753,0.83511 25.672179,25.6727 89.969943 0 1 -0.84332,-36.297538 25.672179,25.6727 89.969943 0 1 17.97511,-7.92923 z" />
    <text
       xml:space="preserve"
       style="font-size:33.8667px;line-height:1.25;font-family:Monoton;-inkscape-font-specification:Monoton;text-decoration:none;text-decoration-line:none;text-decoration-color:#000000;letter-spacing:0px;word-spacing:0px;fill:#000000;stroke-width:4.23333"
       x="463.72339"
       y="-134.80446"
       id="text25303"><tspan
         sodipodi:role="line"
         id="tspan25301"
         style="stroke-width:4.23333"
         x="463.72339"
         y="-134.80446"></tspan></text>
  </g>
</svg>
